<svg xmlns="http://www.w3.org/2000/svg" height="778.658" width="999.987" viewBox="0 0 264.583 206.018"><path d="M25.02.88c-1.7.252-3.336 6.513-6.622 9.777-2.4 2.351-5.403 2.21-6.994 5.118-.607 1.083-.41 2.942-1.093 4.719-1.346 3.565-6.064 3.882-6.064 7.764-.017 4.194 3.931 4.993 7.36 7.973 2.674 2.39 2.93 4.04 6.168 5.205 2.766.935 6.878-2.132 10.58-1.028 3.035.902 5.943 1.553 6.633 4.675.607 2.882-.044 7.338-3.73 6.824-1.24-.142-6.632-1.952-13.243-1.246-7.989.907-17.098 3.51-17.99 12.417-.492 4.971 5.665 10.838 11.609 9.646 4.106-.804 2.165-5.654 4.396-8.005C18.966 61.7 35.594 75.245 51.04 75.245c6.507 0 11.346-1.646 16.153-6.677.448-.388.995-1.208 1.69-1.263.655.055 1.798.7 2.175.973C83.5 78.28 92.91 98.347 138.651 98.577c6.436.038 13.757 3.11 19.745 8.568 5.336 4.932 8.453 12.615 11.488 20.4 4.582 11.686 12.779 23.054 25.218 35.7.678.678 10.92 8.64 11.74 9.23.125.093.88 1.886.617 2.887-.3 7.59-1.405 29.642 15.037 30.643 4.02.202 2.97-2.625 2.97-4.566-.011-3.844-.711-7.66 1.312-11.598 2.767-5.408-5.873-7.896-5.621-19.592.18-8.721-7.147-7.234-10.86-13.877-2.143-3.85-4.046-5.89-3.91-10.597.837-26.493-5.637-43.901-8.863-48.178-2.52-3.226-4.604-4.505-2.302-5.998 13.725-9.072 16.836-17.498 16.836-17.498 7.3-17.153 13.861-32.819 22.91-39.72 1.822-1.428 6.497-4.916 9.362-6.283 8.448-3.98 12.888-6.398 15.343-8.782 3.877-3.778 6.95-11.668 3.226-16.447-4.625-5.9-12.625-1.22-16.152.875-25.23 14.971-28.948 41.38-37.687 56.548-6.971 12.117-18.307 21.019-28.444 21.746-7.59.563-15.786-.973-23.939-4.555-19.833-8.694-30.68-19.92-33.252-21.904C118.1 51.467 76.74 10.857 43.22 9.2c0 0-4.161-8.333-5.205-8.464-2.45-.317-4.96 4.97-6.759 5.588-1.69.558-4.533-5.725-6.239-5.446" fill="#982018"/></svg>