<svg xmlns="http://www.w3.org/2000/svg" width="1000" height="778.65">
  <path d="M94.57 3.33c-6.43.96-12.6 24.62-25.03 36.96-9.07 8.88-20.41 8.35-26.43 19.34-2.3 4.1-1.55 11.12-4.13 17.83-5.09 13.48-22.92 14.68-22.92 29.35-.06 15.85 14.86 18.87 27.82 30.13 10.1 9.03 11.07 15.27 23.3 19.68 10.46 3.53 26-8.06 40-3.89 11.47 3.41 22.46 5.87 25.07 17.67 2.29 10.9-.17 27.74-14.1 25.8-4.7-.54-25.07-7.39-50.05-4.72-30.2 3.43-64.63 13.27-68 46.93-1.86 18.79 21.41 40.96 43.88 36.46 15.52-3.04 8.18-21.37 16.61-30.26 11.1-11.4 73.95 39.79 132.33 39.79 24.6 0 42.88-6.22 61.05-25.24 1.7-1.46 3.76-4.56 6.39-4.77 2.48.2 6.8 2.64 8.22 3.68 47.02 37.8 82.58 113.64 255.46 114.51 24.32.14 52 11.76 74.62 32.38 20.17 18.64 31.95 47.68 43.42 77.11 17.32 44.16 48.3 87.13 95.32 134.93 2.56 2.56 41.27 32.65 44.37 34.89.47.35 3.32 7.13 2.33 10.9-1.13 28.7-5.3 112.04 56.83 115.82 15.2.77 11.23-9.92 11.23-17.26-.04-14.52-2.69-28.95 4.96-43.83 10.45-20.44-22.2-29.84-21.25-74.05.68-32.96-27-27.34-41.04-52.45-8.1-14.55-15.3-22.25-14.78-40.05 3.16-100.13-21.3-165.93-33.5-182.09-9.53-12.2-17.4-17.03-8.7-22.67 51.87-34.29 63.63-66.13 63.63-66.13 27.6-64.83 52.4-124.04 86.6-150.12 6.88-5.4 24.55-18.58 35.38-23.75 31.92-15.04 48.7-24.18 57.99-33.19 14.65-14.28 26.26-44.1 12.19-62.16-17.49-22.3-47.72-4.61-61.05 3.3-95.35 56.59-109.4 156.4-142.43 213.73-26.35 45.8-69.2 79.45-107.5 82.2-28.7 2.12-59.67-3.68-90.49-17.22-74.95-32.86-115.95-75.29-125.67-82.79-20.13-15.54-176.45-169.03-303.13-175.3 0 0-15.73-31.49-19.68-31.98-9.25-1.2-18.74 18.78-25.54 21.12-6.39 2.1-17.13-21.64-23.58-20.59"/>
</svg>
